<?xml version="1.0" encoding="UTF-8" standalone="no"?>
<!-- Created with Inkscape (http://www.inkscape.org/) -->

<svg
   xmlns:dc="http://purl.org/dc/elements/1.1/"
   xmlns:cc="http://creativecommons.org/ns#"
   xmlns:rdf="http://www.w3.org/1999/02/22-rdf-syntax-ns#"
   xmlns:svg="http://www.w3.org/2000/svg"
   xmlns="http://www.w3.org/2000/svg"
   xmlns:sodipodi="http://sodipodi.sourceforge.net/DTD/sodipodi-0.dtd"
   xmlns:inkscape="http://www.inkscape.org/namespaces/inkscape"
   version="1.1"
   id="svg10"
   width="351.18991"
   height="290.31653"
   viewBox="0 0 351.18992 290.31653"
   sodipodi:docname="controls.svg"
   inkscape:version="0.92.4 (5da689c313, 2019-01-14)">
  <metadata
     id="metadata16">
    <rdf:RDF>
      <cc:Work
         rdf:about="">
        <dc:format>image/svg+xml</dc:format>
        <dc:type
           rdf:resource="http://purl.org/dc/dcmitype/StillImage" />
        <dc:title></dc:title>
      </cc:Work>
    </rdf:RDF>
  </metadata>
  <defs
     id="defs14">
    <marker
       inkscape:stockid="Tail"
       orient="auto"
       refY="0"
       refX="0"
       id="marker1709"
       style="overflow:visible"
       inkscape:isstock="true">
      <g
         id="g1707"
         transform="scale(-1.2)"
         style="fill:#000000;fill-opacity:1;stroke:#000000;stroke-opacity:1">
        <path
           id="path1695"
           d="M -3.8048674,-3.9585227 0.54352094,0"
           style="fill:#000000;fill-opacity:1;fill-rule:evenodd;stroke:#000000;stroke-width:0.80000001;stroke-linecap:round;stroke-opacity:1"
           inkscape:connector-curvature="0" />
        <path
           id="path1697"
           d="M -1.2866832,-3.9585227 3.0617053,0"
           style="fill:#000000;fill-opacity:1;fill-rule:evenodd;stroke:#000000;stroke-width:0.80000001;stroke-linecap:round;stroke-opacity:1"
           inkscape:connector-curvature="0" />
        <path
           id="path1699"
           d="M 1.3053582,-3.9585227 5.6537466,0"
           style="fill:#000000;fill-opacity:1;fill-rule:evenodd;stroke:#000000;stroke-width:0.80000001;stroke-linecap:round;stroke-opacity:1"
           inkscape:connector-curvature="0" />
        <path
           id="path1701"
           d="M -3.8048674,4.1775838 0.54352094,0.21974226"
           style="fill:#000000;fill-opacity:1;fill-rule:evenodd;stroke:#000000;stroke-width:0.80000001;stroke-linecap:round;stroke-opacity:1"
           inkscape:connector-curvature="0" />
        <path
           id="path1703"
           d="M -1.2866832,4.1775838 3.0617053,0.21974226"
           style="fill:#000000;fill-opacity:1;fill-rule:evenodd;stroke:#000000;stroke-width:0.80000001;stroke-linecap:round;stroke-opacity:1"
           inkscape:connector-curvature="0" />
        <path
           id="path1705"
           d="M 1.3053582,4.1775838 5.6537466,0.21974226"
           style="fill:#000000;fill-opacity:1;fill-rule:evenodd;stroke:#000000;stroke-width:0.80000001;stroke-linecap:round;stroke-opacity:1"
           inkscape:connector-curvature="0" />
      </g>
    </marker>
    <marker
       inkscape:stockid="Arrow2Lstart"
       orient="auto"
       refY="0"
       refX="0"
       id="Arrow2Lstart"
       style="overflow:visible"
       inkscape:isstock="true">
      <path
         id="path863"
         style="fill:#000000;fill-opacity:1;fill-rule:evenodd;stroke:#000000;stroke-width:0.625;stroke-linejoin:round;stroke-opacity:1"
         d="M 8.7185878,4.0337352 -2.2072895,0.01601326 8.7185884,-4.0017078 c -1.7454984,2.3720609 -1.7354408,5.6174519 -6e-7,8.035443 z"
         transform="matrix(1.1,0,0,1.1,1.1,0)"
         inkscape:connector-curvature="0" />
    </marker>
    <marker
       inkscape:stockid="Arrow1Lstart"
       orient="auto"
       refY="0"
       refX="0"
       id="Arrow1Lstart"
       style="overflow:visible"
       inkscape:isstock="true">
      <path
         id="path845"
         d="M 0,0 5,-5 -12.5,0 5,5 Z"
         style="fill:#000000;fill-opacity:1;fill-rule:evenodd;stroke:#000000;stroke-width:1.00000003pt;stroke-opacity:1"
         transform="matrix(0.8,0,0,0.8,10,0)"
         inkscape:connector-curvature="0" />
    </marker>
    <marker
       inkscape:stockid="Arrow1Lend"
       orient="auto"
       refY="0"
       refX="0"
       id="Arrow1Lend"
       style="overflow:visible"
       inkscape:isstock="true">
      <path
         id="path848"
         d="M 0,0 5,-5 -12.5,0 5,5 Z"
         style="fill:#000000;fill-opacity:1;fill-rule:evenodd;stroke:#000000;stroke-width:1.00000003pt;stroke-opacity:1"
         transform="matrix(-0.8,0,0,-0.8,-10,0)"
         inkscape:connector-curvature="0" />
    </marker>
    <marker
       inkscape:stockid="Tail"
       orient="auto"
       refY="0"
       refX="0"
       id="marker1201"
       style="overflow:visible"
       inkscape:isstock="true">
      <g
         id="g1199"
         transform="scale(-1.2)"
         style="fill:#000000;fill-opacity:1;stroke:#000000;stroke-opacity:1">
        <path
           id="path1187"
           d="M -3.8048674,-3.9585227 0.54352094,0"
           style="fill:#000000;fill-opacity:1;fill-rule:evenodd;stroke:#000000;stroke-width:0.80000001;stroke-linecap:round;stroke-opacity:1"
           inkscape:connector-curvature="0" />
        <path
           id="path1189"
           d="M -1.2866832,-3.9585227 3.0617053,0"
           style="fill:#000000;fill-opacity:1;fill-rule:evenodd;stroke:#000000;stroke-width:0.80000001;stroke-linecap:round;stroke-opacity:1"
           inkscape:connector-curvature="0" />
        <path
           id="path1191"
           d="M 1.3053582,-3.9585227 5.6537466,0"
           style="fill:#000000;fill-opacity:1;fill-rule:evenodd;stroke:#000000;stroke-width:0.80000001;stroke-linecap:round;stroke-opacity:1"
           inkscape:connector-curvature="0" />
        <path
           id="path1193"
           d="M -3.8048674,4.1775838 0.54352094,0.21974226"
           style="fill:#000000;fill-opacity:1;fill-rule:evenodd;stroke:#000000;stroke-width:0.80000001;stroke-linecap:round;stroke-opacity:1"
           inkscape:connector-curvature="0" />
        <path
           id="path1195"
           d="M -1.2866832,4.1775838 3.0617053,0.21974226"
           style="fill:#000000;fill-opacity:1;fill-rule:evenodd;stroke:#000000;stroke-width:0.80000001;stroke-linecap:round;stroke-opacity:1"
           inkscape:connector-curvature="0" />
        <path
           id="path1197"
           d="M 1.3053582,4.1775838 5.6537466,0.21974226"
           style="fill:#000000;fill-opacity:1;fill-rule:evenodd;stroke:#000000;stroke-width:0.80000001;stroke-linecap:round;stroke-opacity:1"
           inkscape:connector-curvature="0" />
      </g>
    </marker>
    <marker
       inkscape:stockid="Tail"
       orient="auto"
       refY="0"
       refX="0"
       id="Tail"
       style="overflow:visible"
       inkscape:isstock="true">
      <g
         id="g893"
         transform="scale(-1.2)"
         style="fill:#000000;fill-opacity:1;stroke:#000000;stroke-opacity:1">
        <path
           id="path881"
           d="M -3.8048674,-3.9585227 0.54352094,0"
           style="fill:#000000;fill-opacity:1;fill-rule:evenodd;stroke:#000000;stroke-width:0.80000001;stroke-linecap:round;stroke-opacity:1"
           inkscape:connector-curvature="0" />
        <path
           id="path883"
           d="M -1.2866832,-3.9585227 3.0617053,0"
           style="fill:#000000;fill-opacity:1;fill-rule:evenodd;stroke:#000000;stroke-width:0.80000001;stroke-linecap:round;stroke-opacity:1"
           inkscape:connector-curvature="0" />
        <path
           id="path885"
           d="M 1.3053582,-3.9585227 5.6537466,0"
           style="fill:#000000;fill-opacity:1;fill-rule:evenodd;stroke:#000000;stroke-width:0.80000001;stroke-linecap:round;stroke-opacity:1"
           inkscape:connector-curvature="0" />
        <path
           id="path887"
           d="M -3.8048674,4.1775838 0.54352094,0.21974226"
           style="fill:#000000;fill-opacity:1;fill-rule:evenodd;stroke:#000000;stroke-width:0.80000001;stroke-linecap:round;stroke-opacity:1"
           inkscape:connector-curvature="0" />
        <path
           id="path889"
           d="M -1.2866832,4.1775838 3.0617053,0.21974226"
           style="fill:#000000;fill-opacity:1;fill-rule:evenodd;stroke:#000000;stroke-width:0.80000001;stroke-linecap:round;stroke-opacity:1"
           inkscape:connector-curvature="0" />
        <path
           id="path891"
           d="M 1.3053582,4.1775838 5.6537466,0.21974226"
           style="fill:#000000;fill-opacity:1;fill-rule:evenodd;stroke:#000000;stroke-width:0.80000001;stroke-linecap:round;stroke-opacity:1"
           inkscape:connector-curvature="0" />
      </g>
    </marker>
  </defs>
  <sodipodi:namedview
     pagecolor="#ffffff"
     bordercolor="#666666"
     borderopacity="1"
     objecttolerance="10"
     gridtolerance="10"
     guidetolerance="10"
     inkscape:pageopacity="0"
     inkscape:pageshadow="2"
     inkscape:window-width="1920"
     inkscape:window-height="1057"
     id="namedview12"
     showgrid="false"
     showguides="true"
     inkscape:guide-bbox="true"
     inkscape:zoom="1.1782888"
     inkscape:cx="245.03914"
     inkscape:cy="180.79575"
     inkscape:window-x="-8"
     inkscape:window-y="-8"
     inkscape:window-maximized="1"
     inkscape:current-layer="svg10"
     fit-margin-top="0"
     fit-margin-left="0"
     fit-margin-right="0"
     fit-margin-bottom="0">
    <sodipodi:guide
       position="382.35797,261.62514"
       orientation="0,1"
       id="guide36"
       inkscape:locked="false" />
  </sodipodi:namedview>
  <path
     style="fill:#000000;stroke-width:0.80000001"
     d="m 60.30492,80.891359 c -6.041465,-1.550392 -6.734816,-3.684744 -6.712597,-20.663449 0.01497,-11.440005 0.241555,-13.919017 1.531988,-16.76115 0.832931,-1.8345 2.241357,-3.7245 3.129837,-4.2 0.96809,-0.518107 6.845826,-0.86441 14.66801,-0.864208 L 85.974751,38.402891 85.698719,24.5704 C 85.396523,9.4267875 86.074803,5.0294379 89.193985,1.9102479 91.06449,0.03974792 91.387553,0.00220792 105.61748,0.00220792 c 11.76123,0 15.03699,0.24749 17.26405,1.30429998 4.95898,2.35318 5.09322,2.90936 5.09322,21.1012251 v 16.449509 l 2.20159,1.300513 c 2.06441,1.219477 2.31918,1.2053 4.08863,-0.227514 1.70715,-1.382365 3.30849,-1.527525 16.79841,-1.522756 13.39185,0.0047 15.15045,0.16287 17.25743,1.551805 4.13073,2.722994 4.39487,3.954314 4.42559,20.630303 l 0.0284,15.387379 -2.33378,2.612619 -2.33378,2.612624 h -15.46622 c -11.30746,0 -16.16555,-0.295072 -18.06695,-1.097352 -2.20364,-0.929808 -2.80248,-0.929808 -3.92213,0 -1.01797,0.845368 -4.82964,1.097352 -16.59928,1.097352 -11.14786,0 -15.980913,-0.29664 -17.878593,-1.097352 -2.195466,-0.926368 -2.805357,-0.927528 -3.913951,-0.0072 -1.504628,1.248736 -27.651535,1.898392 -31.955156,0.793976 z m 28.522423,-8.117292 c 1.443535,-0.772556 1.547407,-1.813156 1.547407,-15.502044 0,-12.673635 -0.180337,-14.823564 -1.322956,-15.771853 -1.008202,-0.836734 -4.595284,-1.097956 -15.077043,-1.097956 -10.481759,0 -14.068841,0.261222 -15.077043,1.097956 -1.142548,0.94823 -1.322955,3.097408 -1.322955,15.760248 0,13.120117 0.147252,14.748059 1.399999,15.477717 1.865344,1.086465 27.831257,1.117718 29.852591,0.03594 z M 62.811011,51.558004 c 1.503061,-7.998392 2.326084,-8.0943 3.676402,-0.42842 0.948921,5.387107 0.527333,6.823623 -1.295485,4.41423 -1.059033,-1.399827 -1.168631,-1.412849 -1.191734,-0.1416 -0.01399,0.77 -0.50902,1.4 -1.10006,1.4 -0.890427,0 -0.905703,-0.898866 -0.08912,-5.24421 z m 64.416329,21.216063 c 1.44354,-0.772556 1.54741,-1.813156 1.54741,-15.502044 0,-12.679607 -0.17997,-14.823118 -1.3242,-15.771853 -1.90907,-1.582902 -28.247654,-1.582902 -30.1537,0 -1.141438,0.947922 -1.3221,3.101522 -1.3221,15.760248 0,13.120117 0.147252,14.748059 1.4,15.477717 1.865345,1.086465 27.83126,1.117718 29.85259,0.03594 z M 101.87137,55.621289 c -0.70831,-1.845839 0.4714,-2.67732 1.41255,-0.995584 0.43404,0.775589 1.12704,1.201344 1.54,0.946121 1.38863,-0.858221 0.76675,-2.505536 -1.30166,-3.447963 -1.57599,-0.718071 -1.99386,-1.425607 -1.8,-3.047722 0.3561,-2.979452 2.61435,-4.254924 4.38986,-2.479414 0.75207,0.752066 1.09925,1.635538 0.77151,1.963271 -0.32773,0.327734 -0.89605,0.110184 -1.26294,-0.483445 -0.36688,-0.593628 -1.0673,-0.831956 -1.5565,-0.529617 -1.51632,0.937137 -0.98365,2.555531 1.16305,3.533629 1.59792,0.728064 1.99656,1.420908 1.8,3.128412 -0.19824,1.722037 -0.72612,2.247717 -2.45704,2.446814 -1.45894,0.167815 -2.37172,-0.182066 -2.69883,-1.034502 z m 63.75598,17.152778 c 1.44353,-0.772556 1.54741,-1.813156 1.54741,-15.502044 0,-12.673635 -0.18034,-14.823564 -1.32296,-15.771853 -1.0082,-0.836734 -4.59528,-1.097956 -15.07704,-1.097956 -10.48177,0 -14.06885,0.261222 -15.07706,1.097956 -1.14254,0.94823 -1.32295,3.097408 -1.32295,15.760248 0,13.120117 0.14725,14.748059 1.4,15.477717 1.86534,1.086465 27.83126,1.117718 29.8526,0.03594 z m -26.4526,-21.521166 c 0,-5.416463 0.0788,-5.650687 1.90205,-5.650687 2.86052,0 3.81518,1.761353 3.542,6.535059 -0.23854,4.168533 -0.30283,4.270608 -2.84405,4.515628 l -2.6,0.250687 z m 3.8418,0.08643 c 0.19346,-3.30986 -0.007,-4.137118 -0.99999,-4.137118 -0.97414,0 -1.24181,0.962795 -1.24181,4.466667 0,5.874605 1.89547,5.595969 2.2418,-0.329549 z m -21.6018,-17.097117 c 1.35193,-1.351927 1.35193,-29.5280761 0,-30.8800061 -0.67595,-0.67594 -5.24444,-0.96 -15.44,-0.96 -10.195555,0 -14.764051,0.28406 -15.44,0.96 -0.674467,0.67447 -0.96,5.1784196 -0.96,15.1428621 0,11.826841 0.208833,14.391691 1.257144,15.440001 1.048309,1.04831 3.613159,1.257143 15.439996,1.257143 9.96445,0 14.46839,-0.285533 15.14286,-0.96 z M 96.856874,14.936683 C 95.796838,8.8495075 95.795329,8.8022075 96.661085,8.8022075 c 0.377484,0 1.054251,1.5300005 1.503927,3.4000055 0.729776,3.034816 0.829227,3.142223 0.925916,1 0.108256,-2.398515 1.297032,-5.0883955 1.934322,-4.3768355 0.18562,0.20726 0.70799,1.8168305 1.16082,3.5768355 0.7668,2.98035 0.82983,3.035263 0.91825,0.8 0.0947,-2.392835 1.27972,-5.0921955 1.92151,-4.3768355 0.18595,0.20726 -0.034,2.8068355 -0.48874,5.7768355 -0.54455,3.556431 -1.19136,5.400001 -1.89458,5.400001 -0.58727,0 -1.06776,-0.698754 -1.06776,-1.552787 0,-0.854033 -0.36,-1.775278 -0.8,-2.047214 -0.45373,-0.280418 -0.8,0.391693 -0.8,1.552787 0,1.219569 -0.451934,2.047214 -1.117876,2.047214 -0.746594,0 -1.410857,-1.682421 -2,-5.065531 z m 97.848046,65.954676 c -6.00709,-1.541568 -6.73137,-3.723696 -6.7257,-20.263449 0.005,-14.484885 0.67563,-18.18597 3.73097,-20.589307 1.92247,-1.512208 3.1801,-1.636015 16.57245,-1.63146 11.29193,0.0038 14.99811,0.268827 16.78356,1.2 3.26451,1.70256 3.77078,1.496251 2.46604,-1.004929 -1.46989,-2.817785 -1.63437,-27.622696 -0.21457,-32.3615365 1.75552,-5.85937958 2.92248,-6.23846958 19.2047,-6.23846958 15.52845,0 17.36343,0.40048 20.58174,4.49190998 1.56056,1.9839196 1.67064,3.1217796 1.67064,17.2685761 0,9.618754 -0.32585,15.75358 -0.89306,16.813418 -0.79179,1.479459 -0.72374,1.586906 0.6,0.947406 0.82118,-0.396717 8.63103,-0.721304 17.35521,-0.721304 h 15.86215 l 2.78412,3.038744 2.78412,3.038744 -0.24627,15.944907 -0.24627,15.94491 -2.21751,2.216344 -2.21751,2.216352 h -15.38249 c -11.2365,0 -16.08345,-0.295768 -17.98321,-1.097352 -2.20364,-0.929808 -2.80248,-0.929808 -3.92213,0 -1.01797,0.845368 -4.82964,1.097352 -16.59928,1.097352 -11.14786,0 -15.98091,-0.29664 -17.87859,-1.097352 -2.19547,-0.926368 -2.80536,-0.927528 -3.91395,-0.0072 -1.50463,1.248736 -27.65153,1.898392 -31.95516,0.793976 z m 28.52243,-8.117292 c 1.44353,-0.772556 1.5474,-1.813156 1.5474,-15.502044 0,-12.673635 -0.18033,-14.823564 -1.32295,-15.771853 -1.00821,-0.836734 -4.59529,-1.097956 -15.07705,-1.097956 -10.48176,0 -14.06884,0.261222 -15.07704,1.097956 -1.14255,0.94823 -1.32296,3.097408 -1.32296,15.760248 0,13.120117 0.14725,14.748059 1.4,15.477717 1.86535,1.086465 27.83126,1.117718 29.8526,0.03594 z m -21.0526,-18.02223 c -2.97,-1.524428 -5.4,-2.942196 -5.4,-3.150596 0,-0.208402 2.52,-1.647964 5.6,-3.199027 l 5.6,-2.820114 v 6.010057 c 0,3.305532 -0.09,5.992352 -0.2,5.970711 -0.11,-0.02164 -2.63,-1.286605 -5.6,-2.811031 z m 59.45259,18.02223 c 1.44354,-0.772556 1.54741,-1.813156 1.54741,-15.502044 0,-12.679607 -0.17997,-14.823118 -1.3242,-15.771853 -1.00909,-0.836683 -4.59707,-1.097956 -15.0779,-1.097956 -10.48184,0 -14.06821,0.261192 -15.0758,1.097956 -1.14143,0.947922 -1.3221,3.101522 -1.3221,15.760248 0,13.120117 0.14725,14.748059 1.4,15.477717 1.86535,1.086465 27.83126,1.117718 29.85259,0.03594 z m -23.08088,-21.187 c -1.41444,-2.86833 -2.57171,-5.38833 -2.57171,-5.6 0,-0.211669 2.52,-0.384853 5.6,-0.384853 3.08,0 5.6,0.195163 5.6,0.433696 0,0.804923 -5.19609,10.725935 -5.62829,10.746211 -0.23556,0.01105 -1.58556,-2.326723 -3,-5.195054 z m 61.77115,20.758004 c 1.92248,-1.922481 1.86419,-29.243142 -0.0658,-30.844901 -1.00818,-0.836734 -4.59526,-1.097956 -15.07702,-1.097956 -10.48176,0 -14.06884,0.261222 -15.07705,1.097956 -1.14254,0.94823 -1.32295,3.097408 -1.32295,15.760248 0,13.120117 0.14725,14.748059 1.4,15.477717 0.79851,0.465089 7.30443,0.825877 15.14286,0.839753 11.44932,0.02026 13.95266,-0.185476 15,-1.232817 z M 273.57475,52.002214 c 0,-3.967369 0.29155,-5.588683 1,-5.561183 0.55,0.02135 3.32963,1.236725 6.17695,2.700836 l 5.17693,2.662019 -5.75697,2.899164 c -3.16633,1.59454 -5.94596,2.899164 -6.17694,2.899164 -0.23098,0 -0.41997,-2.52 -0.41997,-5.6 z m -11.36,-17.76 c 1.35193,-1.351927 1.35193,-29.5280761 0,-30.8800061 -1.35193,-1.35192 -29.52807,-1.35192 -30.88,0 -1.35192,1.35193 -1.35192,29.5280791 0,30.8800061 0.67596,0.675949 5.24445,0.96 15.44,0.96 10.19555,0 14.76405,-0.284051 15.44,-0.96 z m -23.6008,-21.407967 c 1.40844,-3.0623795 2.75354,-5.5823795 2.9891,-5.5999995 0.40562,-0.0303 5.5717,9.9677485 5.5717,10.7831135 0,0.211668 -2.50236,0.384852 -5.5608,0.384852 h -5.5608 z"
     id="path20"
     inkscape:connector-curvature="0" />
  <text
     xml:space="preserve"
     style="font-style:normal;font-variant:normal;font-weight:bold;font-stretch:normal;font-size:40px;line-height:125%;font-family:Bahnschrift;-inkscape-font-specification:'Bahnschrift Bold';letter-spacing:0px;word-spacing:0px;fill:#000000;fill-opacity:1;stroke:none;stroke-width:1px;stroke-linecap:butt;stroke-linejoin:miter;stroke-opacity:1"
     x="-2.734375"
     y="28.691406"
     id="text24"><tspan
       sodipodi:role="line"
       id="tspan22"
       x="-2.734375"
       y="28.691406">USE</tspan></text>
  <text
     xml:space="preserve"
     style="font-style:normal;font-variant:normal;font-weight:bold;font-stretch:normal;font-size:40px;line-height:125%;font-family:Bahnschrift;-inkscape-font-specification:'Bahnschrift Bold';letter-spacing:0px;word-spacing:0px;fill:#000000;fill-opacity:1;stroke:none;stroke-width:1px;stroke-linecap:butt;stroke-linejoin:miter;stroke-opacity:1"
     x="153.63644"
     y="28.691406"
     id="text28"><tspan
       sodipodi:role="line"
       id="tspan26"
       x="153.63644"
       y="28.691406">OR</tspan></text>
  <text
     xml:space="preserve"
     style="font-style:normal;font-variant:normal;font-weight:bold;font-stretch:normal;font-size:40px;line-height:125%;font-family:Bahnschrift;-inkscape-font-specification:'Bahnschrift Bold';letter-spacing:0px;word-spacing:0px;fill:#000000;fill-opacity:1;stroke:none;stroke-width:1px;stroke-linecap:butt;stroke-linejoin:miter;stroke-opacity:1"
     x="124.86172"
     y="142.83998"
     id="text32"><tspan
       sodipodi:role="line"
       id="tspan30"
       x="124.86172"
       y="142.83998"
       style="text-align:center;text-anchor:middle">TO COLLECT</tspan><tspan
       sodipodi:role="line"
       x="124.86172"
       y="192.83998"
       id="tspan34"
       style="text-align:center;text-anchor:middle">ALL STARS</tspan></text>
  <path
     style="fill:none;fill-rule:evenodd;stroke:#000000;stroke-width:2.66483545;stroke-linecap:butt;stroke-linejoin:round;stroke-miterlimit:4;stroke-dasharray:none;stroke-opacity:1;marker-start:url(#Arrow2Lstart);marker-end:url(#marker1201)"
     d="m 340.84896,285.87774 c 0,0 -10.46749,-125.99879 -78.50617,-136.67663"
     id="path38"
     inkscape:connector-curvature="0" />
</svg>
