<?xml version="1.0" encoding="UTF-8" standalone="no"?>
<!-- Created with Inkscape (http://www.inkscape.org/) -->

<svg
   xmlns:dc="http://purl.org/dc/elements/1.1/"
   xmlns:cc="http://creativecommons.org/ns#"
   xmlns:rdf="http://www.w3.org/1999/02/22-rdf-syntax-ns#"
   xmlns:svg="http://www.w3.org/2000/svg"
   xmlns="http://www.w3.org/2000/svg"
   xmlns:sodipodi="http://sodipodi.sourceforge.net/DTD/sodipodi-0.dtd"
   xmlns:inkscape="http://www.inkscape.org/namespaces/inkscape"
   width="210mm"
   height="297mm"
   viewBox="0 0 210 297"
   version="1.1"
   id="svg8"
   inkscape:version="0.92.4 (5da689c313, 2019-01-14)"
   sodipodi:docname="aae_network.svg"
   inkscape:export-filename="C:\Users\Antoine\Desktop\PegAE\image\aae_network.png"
   inkscape:export-xdpi="100"
   inkscape:export-ydpi="100">
  <defs
     id="defs2">
    <marker
       inkscape:stockid="Arrow1Lstart"
       orient="auto"
       refY="0.0"
       refX="0.0"
       id="Arrow1Lstart"
       style="overflow:visible"
       inkscape:isstock="true">
      <path
         id="path879"
         d="M 0.0,0.0 L 5.0,-5.0 L -12.5,0.0 L 5.0,5.0 L 0.0,0.0 z "
         style="fill-rule:evenodd;stroke:#000000;stroke-width:1pt;stroke-opacity:1;fill:#000000;fill-opacity:1"
         transform="scale(0.8) translate(12.5,0)" />
    </marker>
    <marker
       inkscape:stockid="Arrow1Lend"
       orient="auto"
       refY="0.0"
       refX="0.0"
       id="Arrow1Lend"
       style="overflow:visible;"
       inkscape:isstock="true">
      <path
         id="path882"
         d="M 0.0,0.0 L 5.0,-5.0 L -12.5,0.0 L 5.0,5.0 L 0.0,0.0 z "
         style="fill-rule:evenodd;stroke:#000000;stroke-width:1pt;stroke-opacity:1;fill:#000000;fill-opacity:1"
         transform="scale(0.8) rotate(180) translate(12.5,0)" />
    </marker>
  </defs>
  <sodipodi:namedview
     id="base"
     pagecolor="#ffffff"
     bordercolor="#666666"
     borderopacity="1.0"
     inkscape:pageopacity="0.0"
     inkscape:pageshadow="2"
     inkscape:zoom="0.175"
     inkscape:cx="-1267.5785"
     inkscape:cy="4547.2881"
     inkscape:document-units="mm"
     inkscape:current-layer="layer1"
     showgrid="false"
     inkscape:window-width="1920"
     inkscape:window-height="1057"
     inkscape:window-x="-8"
     inkscape:window-y="-8"
     inkscape:window-maximized="1"
     showguides="true"
     inkscape:guide-bbox="true"
     inkscape:snap-global="true" />
  <metadata
     id="metadata5">
    <rdf:RDF>
      <cc:Work
         rdf:about="">
        <dc:format>image/svg+xml</dc:format>
        <dc:type
           rdf:resource="http://purl.org/dc/dcmitype/StillImage" />
        <dc:title />
      </cc:Work>
    </rdf:RDF>
  </metadata>
  <g
     inkscape:label="Ebene 1"
     inkscape:groupmode="layer"
     id="layer1">
    <text
       xml:space="preserve"
       style="font-style:normal;font-variant:normal;font-weight:bold;font-stretch:normal;font-size:63.95585632px;line-height:125%;font-family:Arial;-inkscape-font-specification:'Arial Bold';letter-spacing:0px;word-spacing:0px;fill:#000000;fill-opacity:1;stroke:none;stroke-width:1.59889627px;stroke-linecap:butt;stroke-linejoin:miter;stroke-opacity:1"
       x="-454.25455"
       y="-1073.0929"
       id="text29"><tspan
         sodipodi:role="line"
         id="tspan27"
         x="-454.25455"
         y="-1073.0929"
         style="stroke-width:1.59889627px">input <tspan
   style="font-style:italic;font-variant:normal;font-weight:normal;font-stretch:normal;font-family:Arial;-inkscape-font-specification:'Arial Italic'"
   id="tspan1201">t</tspan></tspan></text>
    <text
       xml:space="preserve"
       style="font-style:normal;font-variant:normal;font-weight:bold;font-stretch:normal;font-size:60.86272812px;line-height:125%;font-family:Arial;-inkscape-font-specification:'Arial Bold';letter-spacing:0px;word-spacing:0px;fill:#000000;fill-opacity:1;stroke:none;stroke-width:1.52156818px;stroke-linecap:butt;stroke-linejoin:miter;stroke-opacity:1"
       x="-464.60184"
       y="-368.46954"
       id="text33"><tspan
         sodipodi:role="line"
         id="tspan31"
         x="-464.60184"
         y="-368.46954"
         style="stroke-width:1.52156818px">output <tspan
   style="-inkscape-font-specification:'Arial Italic';font-family:Arial;font-weight:normal;font-style:italic;font-stretch:normal;font-variant:normal"
   id="tspan1203">t</tspan></tspan></text>
    <text
       xml:space="preserve"
       style="font-style:normal;font-variant:normal;font-weight:bold;font-stretch:normal;font-size:36.6600914px;line-height:125%;font-family:Arial;-inkscape-font-specification:'Arial Bold';letter-spacing:0px;word-spacing:0px;fill:#000000;fill-opacity:1;stroke:none;stroke-width:0.9165023px;stroke-linecap:butt;stroke-linejoin:miter;stroke-opacity:1"
       x="-519.37103"
       y="-800.34265"
       id="text37"><tspan
         sodipodi:role="line"
         id="tspan35"
         x="-519.37103"
         y="-800.34265"
         style="stroke-width:0.9165023px">action-variable</tspan></text>
    <text
       xml:space="preserve"
       style="font-style:normal;font-variant:normal;font-weight:bold;font-stretch:normal;font-size:32.60523224px;line-height:125%;font-family:Arial;-inkscape-font-specification:'Arial Bold';letter-spacing:0px;word-spacing:0px;fill:#000000;fill-opacity:1;stroke:none;stroke-width:0.81513089px;stroke-linecap:butt;stroke-linejoin:miter;stroke-opacity:1"
       x="699.85614"
       y="-536.05103"
       id="text41"
       transform="rotate(-90)"><tspan
         sodipodi:role="line"
         id="tspan39"
         x="699.85614"
         y="-536.05103"
         style="stroke-width:0.81513089px">category</tspan></text>
    <text
       xml:space="preserve"
       style="font-style:normal;font-variant:normal;font-weight:bold;font-stretch:normal;font-size:34.74230957px;line-height:125%;font-family:Arial;-inkscape-font-specification:'Arial Bold';letter-spacing:0px;word-spacing:0px;fill:#000000;fill-opacity:1;stroke:none;stroke-width:0.86855775px;stroke-linecap:butt;stroke-linejoin:miter;stroke-opacity:1"
       x="-98.619209"
       y="-468.57559"
       id="text45"><tspan
         sodipodi:role="line"
         id="tspan43"
         x="-98.619209"
         y="-468.57559"
         style="stroke-width:0.86855775px">binary-crossentropy</tspan></text>
    <text
       xml:space="preserve"
       style="font-style:normal;font-variant:normal;font-weight:bold;font-stretch:normal;font-size:43.95101166px;line-height:125%;font-family:Arial;-inkscape-font-specification:'Arial Bold';letter-spacing:0px;word-spacing:0px;fill:#000000;fill-opacity:1;stroke:none;stroke-width:1.09877527px;stroke-linecap:butt;stroke-linejoin:miter;stroke-opacity:1"
       x="-103.682"
       y="-682.6665"
       id="text49"><tspan
         sodipodi:role="line"
         id="tspan47"
         x="-103.682"
         y="-682.6665"
         style="stroke-width:1.09877527px">zero-loss</tspan></text>
    <text
       xml:space="preserve"
       style="font-style:normal;font-variant:normal;font-weight:bold;font-stretch:normal;font-size:40.15580368px;line-height:125%;font-family:Arial;-inkscape-font-specification:'Arial Bold';letter-spacing:0px;word-spacing:0px;fill:#000000;fill-opacity:1;stroke:none;stroke-width:1.00389504px;stroke-linecap:butt;stroke-linejoin:miter;stroke-opacity:1"
       x="-122.17072"
       y="-778.07928"
       id="text53"><tspan
         sodipodi:role="line"
         id="tspan51"
         x="-122.17072"
         y="-778.07928"
         style="stroke-width:1.00389504px">gumbel-loss</tspan></text>
    <text
       xml:space="preserve"
       style="font-style:normal;font-variant:normal;font-weight:bold;font-stretch:normal;font-size:67.97966003px;line-height:125%;font-family:Arial;-inkscape-font-specification:'Arial Bold';letter-spacing:0px;word-spacing:0px;fill:#000000;fill-opacity:1;stroke:none;stroke-width:1.6994915px;stroke-linecap:butt;stroke-linejoin:miter;stroke-opacity:1"
       x="-32.657131"
       y="-720.41821"
       id="text57"><tspan
         sodipodi:role="line"
         id="tspan55"
         x="-32.657131"
         y="-720.41821"
         style="stroke-width:1.6994915px">+</tspan></text>
    <text
       id="text61"
       y="-540.97589"
       x="-27.754566"
       style="font-style:normal;font-variant:normal;font-weight:bold;font-stretch:normal;font-size:67.97966003px;line-height:125%;font-family:Arial;-inkscape-font-specification:'Arial Bold';letter-spacing:0px;word-spacing:0px;fill:#000000;fill-opacity:1;stroke:none;stroke-width:1.6994915px;stroke-linecap:butt;stroke-linejoin:miter;stroke-opacity:1"
       xml:space="preserve"><tspan
         style="stroke-width:1.6994915px"
         y="-540.97589"
         x="-27.754566"
         id="tspan59"
         sodipodi:role="line">+</tspan></text>
    <path
       style="fill:#000000;fill-rule:evenodd;stroke:#000000;stroke-width:5;stroke-linecap:butt;stroke-linejoin:miter;stroke-miterlimit:4;stroke-dasharray:5, 5;stroke-dashoffset:0;stroke-opacity:1"
       d="m -515.17896,-997.1428 c 70.5592,149.67092 70.5592,149.67092 70.5592,149.67092"
       id="path63"
       inkscape:connector-curvature="0" />
    <path
       inkscape:connector-curvature="0"
       id="path870"
       d="m -271.50666,-996.9 c -70.5592,149.6709 -70.5592,149.6709 -70.5592,149.6709"
       style="fill:#000000;fill-rule:evenodd;stroke:#000000;stroke-width:5;stroke-linecap:butt;stroke-linejoin:miter;stroke-miterlimit:4;stroke-dasharray:5, 5;stroke-dashoffset:0;stroke-opacity:1" />
    <path
       inkscape:connector-curvature="0"
       id="path874"
       d="m -515.17896,-535.05829 c 70.5592,-149.67092 70.5592,-149.67092 70.5592,-149.67092"
       style="fill:#000000;fill-rule:evenodd;stroke:#000000;stroke-width:5;stroke-linecap:butt;stroke-linejoin:miter;stroke-miterlimit:4;stroke-dasharray:5, 5;stroke-dashoffset:0;stroke-opacity:1" />
    <path
       style="fill:#000000;fill-rule:evenodd;stroke:#000000;stroke-width:5;stroke-linecap:butt;stroke-linejoin:miter;stroke-miterlimit:4;stroke-dasharray:5, 5;stroke-dashoffset:0;stroke-opacity:1"
       d="m -271.50666,-535.30109 c -70.5592,-149.6709 -70.5592,-149.6709 -70.5592,-149.6709"
       id="path876"
       inkscape:connector-curvature="0" />
    <path
       style="fill:#000000;stroke-width:0.18420856"
       d="m -512.7128,-751.83956 v -31.03915 h 124.24868 124.24866 v 31.03915 31.03914 H -388.46412 -512.7128 Z m 62.07829,15.28931 v -15.56562 h 31.03913 31.03916 v 15.56562 15.56562 h 15.47351 15.47352 v -15.56562 -15.56562 h 15.56563 15.56562 v 15.56562 15.56562 h 31.03913 31.03915 v -15.56562 -15.56562 h -31.03915 -31.03913 v -15.28932 -15.2893 h -15.56562 -15.56563 v 15.2893 15.28932 h -15.47352 -15.47351 v -15.28932 -15.2893 h -31.03916 -31.03913 v 15.2893 15.28932 h -30.94704 -30.94704 v 15.56562 15.56562 h 30.94704 30.94704 z"
       id="path83"
       inkscape:connector-curvature="0"
       sodipodi:nodetypes="cccccccccccccccccccccccccccccccccccccccccccccccccc" />
    <path
       style="fill:none;fill-opacity:1;fill-rule:evenodd;stroke:#000000;stroke-width:5.16499996;stroke-linecap:butt;stroke-linejoin:miter;stroke-miterlimit:4;stroke-dasharray:none;stroke-opacity:1"
       d="M -540.95353,-968.78842 H -926.8907 v 2.13815"
       id="path72"
       inkscape:connector-curvature="0" />
    <path
       inkscape:connector-curvature="0"
       id="path1187"
       d="M -540.95353,-908.92004 H -926.8907 v 2.13815"
       style="fill:none;fill-opacity:1;fill-rule:evenodd;stroke:#000000;stroke-width:5.16499996;stroke-linecap:butt;stroke-linejoin:miter;stroke-miterlimit:4;stroke-dasharray:none;stroke-opacity:1" />
    <path
       style="fill:none;fill-opacity:1;fill-rule:evenodd;stroke:#000000;stroke-width:5.16499996;stroke-linecap:butt;stroke-linejoin:miter;stroke-miterlimit:4;stroke-dasharray:none;stroke-opacity:1"
       d="M -540.95353,-641.11598 H -926.8907 v 2.13815"
       id="path1191"
       inkscape:connector-curvature="0" />
    <path
       inkscape:connector-curvature="0"
       id="path1193"
       d="M -540.95353,-584.98944 H -926.8907 v 2.13815"
       style="fill:none;fill-opacity:1;fill-rule:evenodd;stroke:#000000;stroke-width:5.16499996;stroke-linecap:butt;stroke-linejoin:miter;stroke-miterlimit:4;stroke-dasharray:none;stroke-opacity:1" />
    <path
       inkscape:connector-curvature="0"
       id="path1195"
       d="m -926.8907,-582.74566 v -427.56394 h -2.05666"
       style="fill:none;fill-opacity:1;fill-rule:evenodd;stroke:#000000;stroke-width:5.33180857;stroke-linecap:butt;stroke-linejoin:miter;stroke-miterlimit:4;stroke-dasharray:none;stroke-opacity:1" />
    <text
       xml:space="preserve"
       style="font-style:normal;font-variant:normal;font-weight:bold;font-stretch:normal;font-size:63.89066696px;line-height:125%;font-family:Arial;-inkscape-font-specification:'Arial Bold';letter-spacing:0px;word-spacing:0px;fill:#000000;fill-opacity:1;stroke:none;stroke-width:1.59726655px;stroke-linecap:butt;stroke-linejoin:miter;stroke-opacity:1"
       x="-964.901"
       y="-1073.0734"
       id="text1199"><tspan
         sodipodi:role="line"
         id="tspan1197"
         x="-964.901"
         y="-1073.0734"
         style="stroke-width:1.59726655px">input <tspan
   style="font-style:italic;font-variant:normal;font-weight:normal;font-stretch:normal;font-family:Arial;-inkscape-font-specification:'Arial Italic';stroke-width:1.59726655px"
   id="tspan1205">s</tspan></tspan></text>
    <path
       style="fill:#000000;stroke-width:0.25400001"
       d="m -1104.8435,-1044.5725 v -7.493 h 239.522 239.522 v 7.493 7.493 h -239.522 -239.522 z m 57.912,0 v -7.239 h -28.829 -28.829 v 7.239 7.239 h 28.829 28.829 z m 43.688,0 v -7.239 h -7.366 -7.366 v 7.239 7.239 h 7.366 7.366 z m 43.434,0 v -7.239 h -7.239 -7.239 v 7.239 7.239 h 7.239 7.239 z m 43.688,0 v -7.239 h -7.366 -7.366 v 7.239 7.239 h 7.366 7.366 z m 43.688,0 v -7.241 l -14.6685,0.065 -14.6685,0.066 -0.0675,7.1755 -0.0675,7.1755 h 14.73595 14.73596 z m 57.912,0 v -7.239 h -7.366 -7.366 v 7.239 7.239 h 7.366 7.366 z m 57.912,0 v -7.2404 l -21.7805,0.065 -21.7805,0.065 -0.0675,7.1755 -0.0674,7.1755 h 21.84793 21.84797 v -7.2404 z m 28.956,0 v -7.239 h -7.366 -7.366 v 7.239 7.239 h 7.366 7.366 z m 57.912,0 v -7.239 h -14.478 -14.478 v 7.239 7.239 h 14.478 14.478 z m 43.688,0 v -7.239 h -7.366 -7.366 v 7.239 7.239 h 7.366 7.366 z m 36.82999,-0.127 v -7.366 h 236.474 236.474 v 7.366 7.366 h -236.474 -236.474 z m 28.702,0 v -7.112 h -7.239 -7.239 v 7.112 7.112 h 7.239 7.239 z m 28.448,0 v -7.112 h -7.112 -7.112 v 7.112 7.112 h 7.112 7.112 z m 43.18,0 v -7.112 h -7.23127 -7.23126 l -0.0712,7.1122 -0.0712,7.1121 7.3025,-10e-5 7.3025,-2e-4 v -7.112 z m 57.15,0 v -7.112 h -14.351 -14.351 v 7.112 7.112 h 14.351 14.351 z m 28.702,0 v -7.112 h -7.239 -7.239 v 7.112 7.112 h 7.239 7.239 z m 28.702,0 v -7.112 h -7.239 -7.239 v 7.112 7.112 h 7.239 7.239 z m 71.628,0 v -7.112 h -7.23128 -7.23125 l -0.0713,7.1122 -0.0712,7.1121 7.3025,-10e-5 7.3025,-2e-4 v -7.112 z m 57.15,0 v -7.1141 l -14.2875,0.066 -14.2875,0.066 -0.0675,7.0485 -0.0675,7.0485 h 14.35501 14.35501 v -7.1141 z m 28.702,0 v -7.112 h -7.239 -7.239 v 7.112 7.112 h 7.239 7.239 z m 43.18,0 v -7.112 h -7.239 -7.239 v 7.112 7.112 h 7.239 7.239 z m 57.15,0 v -7.112 h -14.478 -14.478 v 7.112 7.112 h 14.478 14.478 z"
       id="path1222"
       inkscape:connector-curvature="0" />
    <path
       inkscape:connector-curvature="0"
       id="path1224"
       d="m -589.47751,-470.60455 v -7.366 h 236.474 236.474 v 7.366 7.366 h -236.474 -236.474 z m 28.702,0 v -7.112 h -7.239 -7.239 v 7.112 7.112 h 7.239 7.239 z m 28.448,0 v -7.112 h -7.112 -7.112 v 7.112 7.112 h 7.112 7.112 z m 43.18,0 v -7.112 h -7.23127 -7.23126 l -0.0712,7.1122 -0.0712,7.1121 7.3025,-10e-5 7.3025,-2e-4 v -7.112 z m 57.15,0 v -7.112 h -14.351 -14.351 v 7.112 7.112 h 14.351 14.351 z m 28.702,0 v -7.112 h -7.239 -7.239 v 7.112 7.112 h 7.239 7.239 z m 28.702,0 v -7.112 h -7.239 -7.239 v 7.112 7.112 h 7.239 7.239 z m 71.628,0 v -7.112 h -7.23128 -7.23125 l -0.0713,7.1122 -0.0712,7.1121 7.3025,-10e-5 7.3025,-2e-4 v -7.112 z m 57.15,0 v -7.1141 l -14.2875,0.066 -14.2875,0.066 -0.0675,7.0485 -0.0675,7.0485 h 14.35501 14.35501 v -7.1141 z m 28.702,0 v -7.112 h -7.239 -7.239 v 7.112 7.112 h 7.239 7.239 z m 43.18,0 v -7.112 h -7.239 -7.239 v 7.112 7.112 h 7.239 7.239 z m 57.15,0 v -7.112 h -14.478 -14.478 v 7.112 7.112 h 14.478 14.478 z"
       style="fill:#000000;stroke-width:0.25400001"
       sodipodi:nodetypes="ccccccccccccccccccccccccccccccccccccccccccccccccccccccccccccccccccccccccccccccccccccccccccccccccccccccccccccccc" />
  </g>
</svg>
